<?xml version="1.0" ?>
<!-- Uploaded to: SVG Repo, www.svgrepo.com, Generator: SVG Repo Mixer Tools -->
<svg fill="#000000" width="800px" height="800px" viewBox="0 0 32 32" xmlns="http://www.w3.org/2000/svg">
<g data-name="30. ATM Machine" id="_30._ATM_Machine">
<path d="M29,0H3A3,3,0,0,0,0,3V29a3,3,0,0,0,3,3H29a3,3,0,0,0,3-3V3A3,3,0,0,0,29,0Zm1,29a1,1,0,0,1-1,1H3a1,1,0,0,1-1-1V3A1,1,0,0,1,3,2H29a1,1,0,0,1,1,1Z"/>
<path d="M25,22H19a1,1,0,0,0,0,2h6a1,1,0,0,0,0-2Z"/>
<path d="M7,22H7a1,1,0,1,0,1,1A1,1,0,0,0,7,22Z"/>
<path d="M11,22h0a1,1,0,1,0,1,1A1,1,0,0,0,11,22Z"/>
<path d="M15,22h0a1,1,0,1,0,1,1A1,1,0,0,0,15,22Z"/>
<path d="M7,26H7a1,1,0,1,0,1,1A1,1,0,0,0,7,26Z"/>
<path d="M11,26h0a1,1,0,1,0,1,1A1,1,0,0,0,11,26Z"/>
<path d="M15,26h0a1,1,0,1,0,1,1A1,1,0,0,0,15,26Z"/>
<path d="M27,4H5A1,1,0,0,0,4,5V19a1,1,0,0,0,1,1H27a1,1,0,0,0,1-1V5A1,1,0,0,0,27,4Zm-3,8h2v2H24Zm2-6v4H24V6ZM6,6H22V18H6ZM26,18H24V16h2Z"/>
</g>
</svg>